<?xml version="1.0" encoding="UTF-8"?><svg id="_Слой_1" xmlns="http://www.w3.org/2000/svg" viewBox="0 0 771.4741 164.9823"><defs><style>.cls-1{opacity:.48;}.cls-1,.cls-2,.cls-3{fill:#fff;}.cls-2{opacity:.72;}</style></defs><path class="cls-3" d="M213.4787,97.0626c-.184-11.1825,3.254-20.486,10.311-27.9104,7.15-7.5161,15.72-11.1825,25.711-10.9991,12.007,0,21.219,4.1705,27.635,12.5115l-5.637,4.9496c-6.324-10.2659-13.428-15.3988-21.311-15.3988-6.599,0-12.007,3.1164-16.223,9.3493-4.217,6.2328-6.325,14.3905-6.325,24.4731,0,10.8155,2.292,19.2945,6.875,25.4355,4.674,6.05,10.724,9.074,18.148,9.074,4.308,0,8.57-1.145,12.787-3.437,4.308-2.291,7.928-5.545,10.861-9.762l1.65.963c-7.974,12.099-18.194,18.148-30.66,18.148-9.807,0-17.919-3.483-24.336-10.449-6.324-6.966-9.486-15.949-9.486-26.9477ZM346.1197,129.5103v.825c-3.666,2.291-7.47,3.437-11.411,3.437-6.691,0-10.312-3.391-10.862-10.174-7.608,7.057-16.086,10.586-25.435,10.586-5.775,0-10.45-1.558-14.024-4.674-3.483-3.117-5.225-7.196-5.225-12.237,0-6.233,2.75-11.32,8.25-15.261,5.499-4.0331,13.107-6.5538,22.823-7.562l8.249-.825,5.225-.4124v-7.8369c0-7.6078-1.375-13.2907-4.125-17.0487-2.75-3.7581-7.241-5.6371-13.474-5.6371-7.149,0-14.024,2.7498-20.623,8.2494l-1.238-1.5124c4.217-3.9414,8.387-6.7828,12.512-8.5243,4.216-1.8332,9.028-2.7498,14.436-2.7498,17.049,0,25.573,8.6618,25.573,25.9855v35.1977c0,4.216.367,7.011,1.1,8.386.733,1.375,2.612,2.063,5.637,2.063.275,0,1.146-.092,2.612-.275ZM323.7097,120.9853v-25.7101c-10.724,1.1916-18.699,3.2997-23.923,6.3241-5.133,2.934-7.7,7.425-7.7,13.474,0,4.492,1.238,7.975,3.712,10.45,2.475,2.474,5.729,3.712,9.762,3.712,6.416,0,12.466-2.75,18.149-8.25ZM393.9277,59.253l-3.85,10.1742c-2.474-1.0999-4.995-1.6499-7.562-1.6499-3.574,0-6.92,1.1458-10.036,3.4373-3.025,2.2914-5.408,5.362-7.15,9.2117v52.383h-13.061V62.0028l12.236-3.7122h.55v18.1486c2.567-5.7746,5.775-10.2201,9.625-13.3365,3.849-3.1164,8.111-4.6747,12.786-4.6747,2.108,0,4.262.275,6.462.825ZM455.8567,91.1505h-52.796v2.4748c0,10.908,2.384,19.478,7.15,25.711,4.858,6.141,11.137,9.211,18.836,9.211,4.583,0,9.028-1.145,13.336-3.437,4.4-2.291,8.066-5.545,11-9.762l1.649.963c-7.882,12.099-18.423,18.148-31.622,18.148-9.991,0-18.195-3.391-24.611-10.174-6.416-6.874-9.624-15.811-9.624-26.8103,0-11.6407,3.483-21.0817,10.449-28.3228,6.966-7.3328,15.812-10.9991,26.536-10.9991,9.532,0,16.911,2.9789,22.135,8.9368,5.225,5.9578,7.746,13.9781,7.562,24.0606ZM403.1987,88.9507h40.147c.367-8.616-1.146-15.5363-4.537-20.7609-3.3-5.3163-7.883-7.9744-13.749-7.9744-5.958,0-10.908,2.6581-14.849,7.9744-3.941,5.2246-6.279,12.1449-7.012,20.7609ZM461.9087,83.5886c-.183-15.4905,4.583-28.1395,14.299-37.9471,9.808-9.8992,21.998-14.7572,36.572-14.5738,7.516,0,14.574,1.4665,21.174,4.3996,6.691,2.9331,12.144,6.8287,16.361,11.6866l-6.875,6.187c-3.758-6.2328-8.387-11.1366-13.886-14.7113-5.408-3.5747-11.228-5.3621-17.461-5.3621-10.266,0-18.653,4.4455-25.161,13.3365-6.416,8.8909-9.624,20.0734-9.624,33.5474,0,14.7572,3.62,26.4899,10.862,35.1969,7.241,8.708,16.544,13.062,27.91,13.062,14.574,0,25.894-6.279,33.96-18.836l1.65.962c-9.808,15.949-23.7401,23.923-41.797,23.923-13.932,0-25.436-4.72-34.51-14.161-8.983-9.441-13.474-21.6775-13.474-36.7097ZM604.4647,59.8029h7.975c-3.3,6.7828-7.883,17.3695-13.749,31.7601l-3.85,9.0743-18.149,43.722c-5.683,13.749-15.5359,20.623-29.56,20.623l.825-7.837c1.925.642,4.171.963,6.737.963,4.033,0,7.791-1.192,11.274-3.575,3.483-2.292,6.187-5.729,8.112-10.312l4.537-10.999-32.035-73.4194h14.024l24.748,56.9204,7.15-17.0484c6.966-17.0487,10.953-30.3394,11.961-39.872ZM610.5217,97.0626c-.183-11.1825,3.254-20.486,10.312-27.9104,7.149-7.5161,15.719-11.1825,25.71-10.9991,12.008,0,21.22,4.1705,27.636,12.5115l-5.637,4.9496c-6.325-10.2659-13.428-15.3988-21.311-15.3988-6.6,0-12.008,3.1164-16.224,9.3493-4.216,6.2328-6.324,14.3905-6.324,24.4731,0,10.8155,2.291,19.2945,6.874,25.4355,4.675,6.05,10.724,9.074,18.149,9.074,4.308,0,8.57-1.145,12.786-3.437,4.308-2.291,7.929-5.545,10.862-9.762l1.65.963c-7.975,12.099-18.195,18.148-30.66,18.148-9.808,0-17.92-3.483-24.336-10.449-6.325-6.966-9.487-15.949-9.487-26.9477ZM682.1187,132.8093V25.5681l12.511-4.1247h.55v111.3659h-13.061ZM771.4647,91.1505h-52.796v2.4748c0,10.908,2.384,19.478,7.15,25.711,4.858,6.141,11.136,9.211,18.836,9.211,4.583,0,9.028-1.145,13.336-3.437,4.4-2.291,8.066-5.545,10.999-9.762l1.65.963c-7.882,12.099-18.423,18.148-31.6219,18.148-9.991,0-18.195-3.391-24.611-10.174-6.416-6.874-9.624-15.811-9.624-26.8103,0-11.6407,3.483-21.0817,10.449-28.3228,6.966-7.3328,15.811-10.9991,26.536-10.9991,9.532,0,16.9109,2.9789,22.1349,8.9368,5.225,5.9578,7.746,13.9781,7.562,24.0606ZM718.8067,88.9507h40.147c.366-8.616-1.146-15.5363-4.537-20.7609-3.3-5.3163-7.883-7.9744-13.749-7.9744-5.958,0-10.908,2.6581-14.849,7.9744-3.942,5.2246-6.279,12.1449-7.012,20.7609Z"/><path class="cls-1" d="M163.1614,97.1401c-.7231,3.5266-1.8867,6.2509-2.6448,7.8204-2.2391,4.636-4.9592,7.5192-5.6685,8.25-1.2911,1.3303-2.5442,2.3549-3.1982,2.8687-.3821.3002-1.6227,1.2611-3.7026,2.5237-.4509.2737-2.9301,1.7683-5.9921,3.1143-7.7802,3.4199-17.4927,5.0757-18.4456,5.2339-5.5824.9267-10.5506,1.1927-12.7057,1.3024-1.0445.0532-1.9103.0839-2.5006.1021,6.2285-5.9965,14.4073-15.264,21.2099-28.2474,9.3539-17.8529,11.7297-34.3801,12.3679-44.2849,1.7216,1.1842,3.9774,2.841,6.48,4.9948,1.6451,1.4158,4.1501,3.5717,6.5065,6.3337,1.7347,2.0333,5.0358,5.9764,7.1236,12.0483.7707,2.2413,2.9384,9.3163,1.1702,17.94Z"/><path class="cls-3" d="M141.9366,55.8383c-35.288-17.9434-76.2794-4.4628-91.465,24.8113-11.749,22.649-6.9711,52.6704,12.4798,74.0805C21.8838,135.86-3.1592,92.2305.3214,47.6398c.8175-10.4731,3.3253-20.5158,9.4202-29.2446C15.2246,10.5428,23.1458,4.5372,32.3702,1.8297c10.304-3.0245,22.543-2.1155,32.1703,2.7193,8.4525,4.2448,16.2936,10.1312,24.1593,15.3311,1.2042.7961,2.4081,1.5927,3.6119,2.3896,18.8043,12.4478,19.4532,12.8707,22.9705,15.248,11.0992,7.5019,20.2361,13.8338,26.6544,18.3207Z"/><path class="cls-2" d="M170.7213,106.1601c-15.3911,30.3466-45.7442,52.4464-79.42,57.53-10.009-1.5926-19.5195-4.6613-28.35-8.96-2.3147-2.1832-5.1122-5.1711-7.8447-9.053-.9122-1.2958-3.7375-5.4196-6.2234-11.25-3.8304-8.984-4.9503-17.5535-5.1619-23.897,14.8059,9.2491,31.3236,15.7807,48.8102,17.3497,18.5225,1.6461,43.431-.1078,58.7599-11.5291,11.1271-8.2901,15.3284-24.1597,10.6996-37.1506-4.8314-13.9952-18.0303-21.9052-29.9997-30.32-14.1688-9.4415-26.4735-17.7264-40.3401-27.0799C107.695,10.1902,125.7677-4.101,146.8816,1.1009c45.549,10.8796,41.0775,71.9347,23.8397,105.0592Z"/></svg>