<?xml version="1.0" encoding="UTF-8"?>
<svg id="Layer_1" xmlns="http://www.w3.org/2000/svg" xmlns:xlink="http://www.w3.org/1999/xlink" version="1.1" viewBox="0 0 512 512">
  <!-- Generator: Adobe Illustrator 29.1.0, SVG Export Plug-In . SVG Version: 2.1.0 Build 142)  -->
  <defs>
    <style>
      .st0 {
        fill: #fff;
        fill-opacity: .2;
      }

      .st0, .st1 {
        stroke: #fceaea;
        stroke-linecap: round;
        stroke-linejoin: round;
        stroke-width: 38.3px;
      }

      .st2 {
        fill: url(#linear-gradient);
      }

      .st1 {
        fill: none;
      }
    </style>
    <linearGradient id="linear-gradient" x1="-701.6" y1="796.4" x2="-700.6" y2="795.4" gradientTransform="translate(359233 407781) scale(512 -512)" gradientUnits="userSpaceOnUse">
      <stop offset=".2" stop-color="#74e0bb"/>
      <stop offset="1" stop-color="#293af9"/>
    </linearGradient>
  </defs>
  <rect class="st2" width="512" height="512" rx="102.4" ry="102.4"/>
  <g>
    <path class="st0" d="M287.9,377.1c34.8.4,73.2-2.5,100.2-29.5,35.8-35.8,35.8-93.8,0-129.6-20.7-20.7-41.2-29.5-76.6-29.5,0-35.4-8.7-55.9-29.5-76.6-35.8-35.8-93.8-35.8-129.6,0s-30.1,65.4-29.5,100.2v165h165Z"/>
    <path class="st1" d="M125.5,167.5l74,74,17.7-5.9-29.5,76.6,106.1-58.9-23.6,58.9,62.1,62.1"/>
  </g>
</svg>