<?xml version="1.0" encoding="UTF-8"?><svg id="Layer_1" xmlns="http://www.w3.org/2000/svg" xmlns:xlink="http://www.w3.org/1999/xlink" viewBox="0 0 1969.0763 512"><defs><style>.cls-1{fill:url(#linear-gradient);}.cls-2{fill:none;stroke:#fceaea;stroke-linecap:round;stroke-linejoin:round;stroke-width:38.3px;}</style><linearGradient id="linear-gradient" x1="-3425.4756" y1="-643.1038" x2="-3424.4756" y2="-642.1038" gradientTransform="translate(1753866.3184 329291.625) scale(512)" gradientUnits="userSpaceOnUse"><stop offset=".2" stop-color="#74e0bb"/><stop offset="1" stop-color="#293af9"/></linearGradient></defs><rect class="cls-1" x="-.0615" y="-.424" width="512" height="512" rx="102.4" ry="102.4"/><path class="cls-2" d="M287.8385,376.676c34.8.4,73.2-2.5,100.2-29.5,35.8-35.8,35.8-93.8,0-129.6s-41.2-29.5-76.6-29.5c0-35.4-8.7-55.9-29.5-76.6-35.8-35.8-93.8-35.8-129.6,0s-30.1,65.4-29.5,100.2v165h165Z"/><path class="cls-2" d="M125.4385,167.076l74,74,17.7-5.9-29.5,76.6,106.1-58.9-23.6,58.9,62.1,62.1"/><path d="M591.8478,341.25c-11.9502-7.25-21.3906-17.4404-28.3203-30.5596-6.9346-13.1201-10.4004-28.3203-10.4004-45.6006,0-17.9199,3.7852-33.7598,11.3604-47.5195,7.5703-13.7607,17.8096-24.4248,30.7197-32,12.9053-7.5703,27.1455-11.3604,42.7207-11.3604,14.0801,0,26.5049,2.5098,37.2793,7.5205,10.7705,5.0146,19.8906,12.1094,27.3604,21.2793l-13.7598,12.1602c-7.2549-12.1602-14.6699-21.2246-22.2402-27.2002-7.5752-5.9697-16.375-8.96-26.4004-8.96s-18.8799,3.2002-26.5596,9.6006c-7.6797,6.3994-13.71,15.5195-18.0801,27.3594-4.375,11.8398-6.5596,25.6553-6.5596,41.4404,0,17.0703,2.4492,31.5752,7.3594,43.5195,4.9053,11.9502,11.6807,21.0156,20.3203,27.2002,8.6396,6.1904,18.5049,9.2803,29.5996,9.2803,9.8105,0,19.5703-2.5605,29.2803-7.6797,9.7051-5.1201,18.0801-12.6904,25.1201-22.7207l3.8398,2.2402c-8.96,13.6553-19.415,24.2148-31.3604,31.6797-11.9492,7.4658-25.4941,11.2002-40.6396,11.2002s-28.6953-3.6299-40.6396-10.8799Z"/><path d="M725.7648,340.6104c-8.2148-7.25-12.3193-16.8506-12.3193-28.8008,0-14.5049,6.3994-26.3447,19.1992-35.5195,12.8008-9.1699,30.29-15.04,52.4805-17.5996,7.6797-.8506,20.0498-1.9199,37.1201-3.2002v4.4795l-3.2002.3203c-16,1.4951-29.2305,3.9502-39.6797,7.3604-10.4551,3.415-18.6152,8.2695-24.4805,14.5596-5.8701,6.2949-8.7998,14.3496-8.7998,24.1602,0,10.6699,2.8799,18.8301,8.6396,24.4795,5.7607,5.6553,13.0107,8.4805,21.7607,8.4805,7.6797,0,15.4648-2.0801,23.3594-6.2402,7.8906-4.1602,15.04-10.1846,21.4404-18.0801l3.2002,3.2002c-8.1104,10.4551-18.1904,18.6152-30.2402,24.4805-12.0557,5.8643-24.0557,8.7998-36,8.7998-13.4404,0-24.2705-3.625-32.4805-10.8799ZM821.4454,340.9297c-3.3105-6.3994-4.96-12.6895-4.96-18.8799v-84.4795c0-11.5205-1.1758-20.96-3.5205-28.3203-2.3496-7.3604-6.5098-13.2246-12.4795-17.5996-5.9756-4.3701-14.1904-6.5605-24.6406-6.5605-8.75,0-16.96,1.4951-24.6396,4.4805-7.6807,2.9893-15.4697,7.79-23.3604,14.3994l-2.8799-3.5195c9.3848-8.7451,18.9854-15.3047,28.7998-19.6797,9.8105-4.3701,21.4404-6.5605,34.8799-6.5605,20.4805,0,35.7852,4.96,45.9199,14.8799,10.1309,9.9199,15.2002,25.1201,15.2002,45.6006v81.9199c0,6.3994.2656,11.1494.7998,14.2393.5303,3.0957,1.9209,5.5508,4.1602,7.3604,2.2402,1.8154,5.8105,2.7197,10.7207,2.7197,1.4893,0,3.5195-.21,6.0791-.6396v1.9199c-3.1992,2.1348-7.2549,4.0547-12.1592,5.7598-4.9102,1.7051-10.2402,2.5605-16,2.5605-11.3105,0-18.6152-3.2002-21.9199-9.6006ZM830.2453,263.4902h6.7197l-4.1602,22.7197h-3.5195l.96-22.7197Z"/><path d="M892.004,183.1699l31.3604-8.96h1.2793v48l.6406.6396v125.4404h-33.2803v-165.1201ZM904.1642,263.4902h5.7598l-4.1602,22.7197h-2.5596l.96-22.7197ZM936.004,197.8896c5.4404-7.4648,11.625-13.2246,18.5605-17.2793,6.9297-4.0508,14.3447-6.0801,22.2393-6.0801,4.6904,0,9.6006.6396,14.7207,1.9199l-9.6006,25.9199c-5.5498-2.7705-11.415-4.1602-17.5996-4.1602-5.9756,0-11.6807,1.4951-17.1201,4.4805-5.4404,2.9893-10.1348,7.0947-14.0801,12.3193-3.9502,5.2305-7.2002,11.04-9.7598,17.4404l-1.2803-8c3.8398-10.2402,8.4805-19.0898,13.9199-26.5605Z"/><path d="M1025.9259,341.4102c-12.2695-7.1455-21.8701-17.2256-28.7998-30.2402-6.9346-13.0098-10.4004-28.0498-10.4004-45.1201,0-18.3447,3.7305-34.4502,11.2002-48.3193,7.4648-13.8652,17.8105-24.585,31.04-32.1602,13.2256-7.5703,28.1602-11.3604,44.7998-11.3604,15.3604,0,28.3203,3.2549,38.8799,9.7598,10.5605,6.5107,18.4502,15.5752,23.6807,27.2002,5.2246,11.6299,7.625,25.0146,7.2002,40.1602h-140.8008v-5.1201h130.2402l-20.7998,1.5996c.8496-13.6494-.3203-25.7041-3.5205-36.1592-3.1992-10.4502-8.0547-18.5049-14.5596-24.1602-6.5098-5.6504-14.1348-8.4805-22.8799-8.4805-9.5996,0-18.1348,3.3105-25.5996,9.9199-7.4707,6.6152-13.2803,15.79-17.4404,27.5205-4.1602,11.7344-6.2402,24.96-6.2402,39.6797,0,17.4951,2.5605,32.3203,7.6807,44.4805,5.1191,12.1602,12.21,21.335,21.2793,27.5195,9.0654,6.1904,19.3604,9.2803,30.8799,9.2803,10.2402,0,20.4258-2.5605,30.5605-7.6797,10.1299-5.1201,18.7197-12.585,25.7598-22.4004l3.8398,2.2402c-9.1748,14.0801-20.1094,24.6943-32.7998,31.8398-12.6953,7.1445-26.6152,10.7197-41.7598,10.7197-15.3604,0-29.1748-3.5752-41.4404-10.7197Z"/><path d="M1218.2433,337.4102c-16.96-9.8105-30.2949-23.6797-40-41.6006-9.71-17.9199-14.5605-38.6094-14.5605-62.0791,0-24.3203,5.1201-45.7607,15.3604-64.3203,10.2402-18.5605,24.3701-32.8506,42.3994-42.8799,18.0254-10.0254,38.3457-15.04,60.96-15.04,18.1309,0,34.7207,3.4697,49.7607,10.3994,15.04,6.9355,27.5693,15.9502,37.5996,27.04l-16.96,15.3604c-7.8945-14.29-18.0801-25.8096-30.5596-34.5596-12.4805-8.7451-26.1904-13.1201-41.1201-13.1201-15.79,0-29.5498,4.6943-41.2803,14.0801-11.7354,9.3896-20.7998,22.2393-27.2002,38.5596-6.3994,16.3203-9.5996,34.9346-9.5996,55.8398,0,23.2549,3.8398,43.3105,11.5195,60.1602,7.6807,16.8555,18.1299,29.71,31.3604,38.5596,13.2246,8.8555,28.2646,13.2803,45.1201,13.2803,14.9297,0,29.2803-3.4102,43.04-10.2402,13.7598-6.8242,25.4395-17.7041,35.04-32.6396l3.8398,2.2402c-10.6699,17.71-24.2705,31.415-40.7998,41.1201-16.5352,9.71-35.4707,14.5596-56.8008,14.5596-21.1191,0-40.1592-4.9053-57.1191-14.7197Z"/><path d="M1386.7238,406.5303c8.9609,0,17.6006-2.6152,25.9209-7.8398,8.3193-5.2305,14.7197-13.1758,19.1992-23.8408l13.4404-32.96-1.9199,11.2002-76.1602-175.04h35.8398l57.6006,132.1602-11.8408,23.6797,26.2402-63.04c8.5303-20.9043,15.04-39.04,19.5205-54.3994,4.4795-15.3604,7.1445-28.1602,8-38.4004h19.1992c-5.335,10.8799-10.4541,21.9756-15.3594,33.2803-4.9102,11.3096-10.7754,25.2803-17.6006,41.9199l-8.3193,19.8398-42.5605,101.7598c-4.9102,11.9453-10.8799,21.4902-17.9199,28.6406-7.04,7.1445-14.8301,12.21-23.3594,15.2002-8.5352,2.9844-17.9209,4.4795-28.1602,4.4795l1.9199-19.2002c5.1201,1.7051,10.5596,2.5605,16.3193,2.5605Z"/><path d="M1561.7648,341.25c-11.9502-7.25-21.3906-17.4404-28.3203-30.5596-6.9346-13.1201-10.4004-28.3203-10.4004-45.6006,0-17.9199,3.7852-33.7598,11.3604-47.5195,7.5703-13.7607,17.8096-24.4248,30.7197-32,12.9053-7.5703,27.1455-11.3604,42.7207-11.3604,14.0801,0,26.5049,2.5098,37.2793,7.5205,10.7705,5.0146,19.8906,12.1094,27.3604,21.2793l-13.7598,12.1602c-7.2549-12.1602-14.6699-21.2246-22.2402-27.2002-7.5752-5.9697-16.375-8.96-26.4004-8.96s-18.8799,3.2002-26.5596,9.6006c-7.6797,6.3994-13.71,15.5195-18.0801,27.3594-4.375,11.8398-6.5596,25.6553-6.5596,41.4404,0,17.0703,2.4492,31.5752,7.3594,43.5195,4.9053,11.9502,11.6807,21.0156,20.3203,27.2002,8.6396,6.1904,18.5049,9.2803,29.5996,9.2803,9.8105,0,19.5703-2.5605,29.2803-7.6797,9.7051-5.1201,18.0801-12.6904,25.1201-22.7207l3.8398,2.2402c-8.96,13.6553-19.415,24.2148-31.3604,31.6797-11.9492,7.4658-25.4941,11.2002-40.6396,11.2002s-28.6953-3.6299-40.6396-10.8799Z"/><path d="M1697.1222,99.3301l32-10.2402h1.2803v259.2002h-33.2803V99.3301Z"/><path d="M1798.0792,341.4102c-12.2695-7.1455-21.8701-17.2256-28.7998-30.2402-6.9346-13.0098-10.4004-28.0498-10.4004-45.1201,0-18.3447,3.7305-34.4502,11.2002-48.3193,7.4648-13.8652,17.8105-24.585,31.04-32.1602,13.2256-7.5703,28.1602-11.3604,44.7998-11.3604,15.3604,0,28.3203,3.2549,38.8799,9.7598,10.5605,6.5107,18.4502,15.5752,23.6807,27.2002,5.2246,11.6299,7.625,25.0146,7.2002,40.1602h-140.8008v-5.1201h130.2402l-20.7998,1.5996c.8496-13.6494-.3203-25.7041-3.5205-36.1592-3.1992-10.4502-8.0547-18.5049-14.5596-24.1602-6.5098-5.6504-14.1348-8.4805-22.8799-8.4805-9.5996,0-18.1348,3.3105-25.5996,9.9199-7.4707,6.6152-13.2803,15.79-17.4404,27.5205-4.1602,11.7344-6.2402,24.96-6.2402,39.6797,0,17.4951,2.5605,32.3203,7.6807,44.4805,5.1191,12.1602,12.21,21.335,21.2793,27.5195,9.0654,6.1904,19.3604,9.2803,30.8799,9.2803,10.2402,0,20.4258-2.5605,30.5605-7.6797,10.1299-5.1201,18.7197-12.585,25.7598-22.4004l3.8398,2.2402c-9.1748,14.0801-20.1094,24.6943-32.7998,31.8398-12.6953,7.1445-26.6152,10.7197-41.7598,10.7197-15.3604,0-29.1748-3.5752-41.4404-10.7197Z"/></svg>